<svg xmlns="http://www.w3.org/2000/svg" viewBox="0 0 360 360" role="img" aria-labelledby="title desc">
  <title id="title">HOAist logo</title>
  <desc id="desc">A blue conversation bubble surrounding a gold house, representing the HOAist smart assistant.</desc>
  <defs>
    <filter id="shadow" x="-30%" y="-30%" width="160%" height="160%">
      <feDropShadow dx="0" dy="10" stdDeviation="8" flood-color="#153445" flood-opacity=".12"/>
    </filter>
  </defs>
  <rect x="18" y="18" width="324" height="324" rx="70" fill="#fff" filter="url(#shadow)"/>
  <path d="M88 236c-9-16-14-35-14-55 0-64 52-116 116-116s116 52 116 116-52 116-116 116c-22 0-42-6-60-16l-46 18 12-63Z" fill="none" stroke="#317a9d" stroke-width="15" stroke-linejoin="round"/>
  <path d="m126 178 64-58 64 58M140 168v65c0 7 5 12 12 12h76c7 0 12-5 12-12v-65M178 245v-42h24v42M232 130v-21h22v39" fill="none" stroke="#f2c94c" stroke-width="13" stroke-linecap="round" stroke-linejoin="round"/>
  <text x="180" y="302" text-anchor="middle" font-family="Arial, Helvetica, sans-serif" font-size="40" font-weight="700" letter-spacing="-2"><tspan fill="#317a9d">HOA</tspan><tspan fill="#f2c94c">ist</tspan></text>
</svg>
